<?xml version="1.0" standalone="no"?><!DOCTYPE svg PUBLIC "-//W3C//DTD SVG 1.1//EN" "http://www.w3.org/Graphics/SVG/1.1/DTD/svg11.dtd"><svg t="1776801011940" class="icon" viewBox="0 0 1024 1024" version="1.1" xmlns="http://www.w3.org/2000/svg" p-id="2262" xmlns:xlink="http://www.w3.org/1999/xlink" width="512" height="512"><path d="M512 0a512 512 0 1 0 512 512A512 512 0 0 0 512 0z m0 938.666667A426.666667 426.666667 0 0 1 85.333333 512v-8.96a1108.053333 1108.053333 0 0 0 181.333334-166.186667A512 512 0 0 0 618.666667 469.333333a270.08 270.08 0 0 1-146.56-138.88c157.866667 90.88 373.546667 136.746667 465.066666 152.96 0 9.6 1.493333 18.986667 1.493334 28.586667a426.666667 426.666667 0 0 1-426.666667 426.666667z" fill="#ffffff" p-id="2263"></path><path d="M341.333333 512a42.666667 42.666667 0 0 0-42.666666 42.666667v85.333333a42.666667 42.666667 0 0 0 85.333333 0v-85.333333a42.666667 42.666667 0 0 0-42.666667-42.666667zM682.666667 512a42.666667 42.666667 0 0 0-42.666667 42.666667v85.333333a42.666667 42.666667 0 0 0 85.333333 0v-85.333333a42.666667 42.666667 0 0 0-42.666666-42.666667z" fill="#ffffff" p-id="2264"></path></svg>