<?xml version="1.0" standalone="no"?><!DOCTYPE svg PUBLIC "-//W3C//DTD SVG 1.1//EN" "http://www.w3.org/Graphics/SVG/1.1/DTD/svg11.dtd"><svg t="1776800924850" class="icon" viewBox="0 0 1024 1024" version="1.1" xmlns="http://www.w3.org/2000/svg" p-id="23008" xmlns:xlink="http://www.w3.org/1999/xlink" width="512" height="512"><path d="M512 0a512 512 0 1 0 512 512A512 512 0 0 0 512 0z m0 938.666667a426.666667 426.666667 0 0 1-341.333333-170.666667V426.666667h426.666666l42.666667-170.666667 42.666667 170.666667h170.666666v341.333333a426.666667 426.666667 0 0 1-341.333333 170.666667z" fill="#ffffff" p-id="23009"></path><path d="M341.333333 512a42.666667 42.666667 0 0 0-42.666666 42.666667v85.333333a42.666667 42.666667 0 0 0 85.333333 0v-85.333333a42.666667 42.666667 0 0 0-42.666667-42.666667zM682.666667 512a42.666667 42.666667 0 0 0-42.666667 42.666667v85.333333a42.666667 42.666667 0 0 0 85.333333 0v-85.333333a42.666667 42.666667 0 0 0-42.666666-42.666667z" fill="#ffffff" p-id="23010"></path></svg>